<?xml version="1.0" encoding="iso-8859-1"?>
<!-- Generator: Adobe Illustrator 19.0.0, SVG Export Plug-In . SVG Version: 6.00 Build 0)  -->
<svg version="1.1" id="Layer_1" xmlns="http://www.w3.org/2000/svg" xmlns:xlink="http://www.w3.org/1999/xlink" x="0px" y="0px"
	 viewBox="0 0 512 512" style="enable-background:new 0 0 512 512;" xml:space="preserve">
<g>
	<g>
		<path d="M452.162,76.028l-44.833-50.87c-18.145-20.586-49.431-23.655-71.232-6.986l-9.193,7.03C307.534,9.455,282.852,0,256,0
			s-51.533,9.455-70.903,25.203l-9.193-7.031c-21.798-16.669-53.087-13.601-71.23,6.986l-44.835,50.87
			c-2.387,2.709-2.822,6.623-1.089,9.79c1.521,2.776,4.423,4.457,7.519,4.457c0.436,0,0.876-0.033,1.316-0.102l81.422-12.614
			c-3.618,11.027-5.583,22.796-5.583,35.017c0,33.341,14.574,63.337,37.679,83.969l-83.769,50.743
			c-8.892,5.383-15.155,13.909-17.633,24.004c-2.479,10.096-0.876,20.553,4.513,29.442c7.308,12.061,20.17,18.736,33.342,18.735
			c6.86,0,13.806-1.811,20.09-5.616l20.81-12.606l-23.193,92.496c-1.073,4.275,1.271,8.668,5.421,10.157
			c6.176,2.217,12.406,4.232,18.677,6.081l-7.992,58.307c-1.396,10.187,1.257,20.305,7.469,28.491
			c6.213,8.188,15.244,13.466,25.456,14.864c1.773,0.238,3.533,0.358,5.233,0.358c19.113,0,35.491-14.297,38.093-33.26l7.603-55.462
			c6.92,0.42,13.849,0.64,20.778,0.64c6.929,0,13.859-0.221,20.778-0.64l7.603,55.464c2.604,18.96,18.981,33.258,38.093,33.258
			c1.699,0,3.46-0.12,5.259-0.361c10.187-1.395,19.219-6.673,25.431-14.861c6.212-8.187,8.864-18.305,7.469-28.492l-7.992-58.307
			c6.271-1.849,12.501-3.864,18.677-6.08c4.148-1.49,6.492-5.882,5.42-10.157l-23.438-93.478l22.433,13.588
			c6.285,3.805,13.228,5.616,20.089,5.616c13.17,0,26.035-6.675,33.34-18.734c5.39-8.891,6.993-19.348,4.514-29.443
			c-2.478-10.095-8.741-18.619-17.632-24.003l-84.588-51.24c22.784-20.615,37.121-50.401,37.121-83.473
			c0-12.221-1.966-23.991-5.583-35.017l81.421,12.614c0.441,0.069,0.88,0.102,1.315,0.102c3.096,0,5.998-1.681,7.519-4.457
			C454.984,82.651,454.549,78.737,452.162,76.028z M88.369,69.598L117.54,36.5c12.213-13.857,33.272-15.922,47.945-4.703l7.01,5.36
			c-5.972,6.607-11.176,13.92-15.464,21.802L88.369,69.598z M200.207,35.233c1.815,15.733,6.883,30.488,14.518,43.572
			c-13.751,16.988-32.921,28.749-54.137,33.302C160.741,80.502,176.342,52.498,200.207,35.233z M128.763,299.18
			c-10.261,6.212-23.664,2.923-29.88-7.337c-3.014-4.972-3.91-10.818-2.525-16.463c1.386-5.644,4.887-10.41,9.861-13.421
			l73.209-44.346l-15.042,59.987L128.763,299.18z M210.627,476.41c-1.443,10.513-10.514,18.439-21.101,18.439
			c-0.941,0-1.936-0.07-2.932-0.202c-5.646-0.773-10.652-3.698-14.095-8.236c-3.443-4.538-4.913-10.148-4.139-15.795l7.698-56.154
			c13.875,3.334,27.925,5.775,42.053,7.346L210.627,476.41z M339.501,486.41c-3.443,4.537-8.449,7.462-14.07,8.233
			c-1.022,0.137-2.017,0.206-2.957,0.206c-10.586,0-19.658-7.927-21.101-18.438l-7.485-54.604
			c14.128-1.571,28.177-4.012,42.054-7.346l7.697,56.153C344.414,476.262,342.944,481.872,339.501,486.41z M407.16,261.961
			c4.972,3.01,8.473,7.776,9.859,13.42c1.387,5.645,0.491,11.491-2.525,16.464c-6.216,10.255-19.614,13.547-29.878,7.336
			l-37.246-22.562l-15.041-59.987L407.16,261.961z M358.189,390.289c-66.199,21.975-138.179,21.975-204.377,0l45.287-180.611
			c3.703,2.179,7.542,4.152,11.499,5.902c0.156,24.905,20.458,45.119,45.398,45.119c24.947,0,45.255-20.216,45.41-45.12
			c3.957-1.752,7.795-3.724,11.498-5.902L358.189,390.289z M228.495,221.749c8.807,2.219,18.019,3.404,27.505,3.404
			c9.487,0,18.702-1.186,27.51-3.405c-2.929,12.478-14.149,21.8-27.513,21.8C242.638,243.548,231.424,234.227,228.495,221.749z
			 M256,208.002c-46.905,0-85.986-34.027-93.925-78.688c24.255-4.719,46.367-17.394,62.774-35.926
			c20.66,25.271,52.064,41.432,87.174,41.432c13.002,0,25.942-2.281,38.106-6.644C342.66,173.397,303.305,208.002,256,208.002z
			 M312.024,117.669c-51.471,0-93.528-40.972-95.331-92.011c11.996-5.447,25.297-8.507,39.307-8.507c51.49,0,93.56,41,95.341,92.063
			C339.001,114.823,325.802,117.669,312.024,117.669z M354.97,58.959c-4.288-7.882-9.492-15.196-15.464-21.803l7.009-5.36
			c14.672-11.219,35.734-9.153,47.946,4.703l29.171,33.097L354.97,58.959z"/>
	</g>
</g>
<g>
	<g>
		<circle cx="306.311" cy="156.077" r="8.576"/>
	</g>
</g>
<g>
	<g>
		<circle cx="205.69" cy="156.077" r="8.576"/>
	</g>
</g>
<g>
</g>
<g>
</g>
<g>
</g>
<g>
</g>
<g>
</g>
<g>
</g>
<g>
</g>
<g>
</g>
<g>
</g>
<g>
</g>
<g>
</g>
<g>
</g>
<g>
</g>
<g>
</g>
<g>
</g>
</svg>
