<?xml version="1.0" encoding="iso-8859-1"?>
<!-- Generator: Adobe Illustrator 19.0.0, SVG Export Plug-In . SVG Version: 6.00 Build 0)  -->
<svg version="1.1" id="Layer_1" xmlns="http://www.w3.org/2000/svg" xmlns:xlink="http://www.w3.org/1999/xlink" x="0px" y="0px"
	 viewBox="0 0 512 512" style="enable-background:new 0 0 512 512;" xml:space="preserve">
<path style="fill:#F7B239;" d="M355.459,476.852c2.331,16.929-9.512,32.534-26.453,34.853c-1.42,0.201-2.839,0.296-4.235,0.296
	c-15.214,0-28.488-11.227-30.617-26.749l-8.991-65.576c6.329-32.431,44.187-41.107,60.986-10.778L355.459,476.852z"/>
<path style="fill:#E09B2D;" d="M322.545,485.251l-8.048-58.699c0,0,24.316-3.029,32.509-11.4l-0.857-6.256
	c-18.058-16.695-46.077-13.177-60.986,10.778l8.991,65.576c2.129,15.522,15.403,26.749,30.617,26.749
	c1.396,0,2.816-0.095,4.235-0.296c3.601-0.493,6.969-1.591,10.023-3.171C330.39,504.069,323.97,495.631,322.545,485.251z"/>
<path style="fill:#F7B239;" d="M226.826,419.675l-8.979,65.576C215.717,500.773,202.443,512,187.218,512
	c-1.384,0-2.816-0.095-4.235-0.296c-16.941-2.319-28.772-17.923-26.453-34.853l9.311-67.954
	c11.29-12.189,15.048-17.542,28.449-15.564C201.309,394.369,227.607,403.018,226.826,419.675z"/>
<path style="fill:#E09B2D;" d="M179.51,476.852l8.591-62.702c6.187-20.817-10.972-19.808-22.261-5.253l-9.311,67.954
	c-2.319,16.929,9.512,32.534,26.453,34.853c1.42,0.201,2.851,0.296,4.235,0.296c4.007,0,7.87-0.796,11.439-2.224
	C185.768,504.627,177.543,491.219,179.51,476.852z"/>
<path style="fill:#F7B239;" d="M190.625,197.522l10.166,59.587l-31.863,26.942l-39.987,24.217
	c-14.824,8.979-34.119,4.235-43.098-10.576c-8.991-14.835-4.247-34.131,10.588-43.11L190.625,197.522z"/>
<path style="fill:#E09B2D;" d="M119.558,290.592c-8.991-14.835-4.247-34.131,10.588-43.11l56.539-34.249l12.528-4.236l-8.589-11.476
	L96.43,254.579c-14.835,8.979-19.579,28.275-10.588,43.11c8.979,14.812,28.275,19.556,43.098,10.576l7.118-4.311
	C129.408,301.64,123.491,297.083,119.558,290.592z"/>
<path style="fill:#F7B239;" d="M416.989,254.58c14.835,8.979,19.568,28.275,10.576,43.11c-8.967,14.812-28.263,19.556-43.098,10.576
	l-41.643-25.234h-0.012l-41.856-40.121l20.159-46.407L416.989,254.58z"/>
<path style="fill:#E09B2D;" d="M427.578,279.946c-8.967,14.812-28.263,19.556-43.098,10.576l-41.643-25.234h-0.012l-16.45-65.605
	l-5.247-3.178l-5.186,51.14l26.882,35.389h0.012l41.643,25.234c14.835,8.979,34.131,4.235,43.098-10.576
	c4.764-7.861,5.674-16.973,3.27-25.141C430.097,275.088,429.015,277.574,427.578,279.946z"/>
<path style="fill:#2BA5F7;" d="M191.559,193.783c7.986,5.986,119.31,6.85,126.728,1.573l2.827,1.148l21.697,86.528l29.493,117.642
	c-8.636,3.1-17.355,5.844-26.157,8.222c-20.041,5.442-40.448,9.039-60.986,10.778c-19.414,1.656-38.922,1.656-58.336,0
	c-20.538-1.739-40.945-5.336-60.986-10.778c-8.802-2.378-17.521-5.123-26.157-8.222l29.245-116.625l21.697-86.528L191.559,193.783z"
	/>
<path style="fill:#F7B239;" d="M352.62,60.217c-5.856-11.937-13.865-22.632-23.531-31.576C309.9,10.86,284.228,0,256,0
	c-17.9,0-34.77,4.365-49.617,12.103c-8.565,4.448-16.456,10.032-23.472,16.539c-9.665,8.932-17.687,19.627-23.543,31.576
	c-7.039,14.303-10.979,30.381-10.979,47.393c0,3.336,0.154,6.625,0.461,9.878c2.827,31.185,18.976,58.525,42.708,76.295
	c7.986,5.986,16.835,10.884,26.323,14.469v5.631c0,21.046,17.06,38.106,38.106,38.106c21.058,0,38.118-17.06,38.118-38.106v-5.631
	c8.648-3.265,16.764-7.619,24.182-12.895c26.903-19.13,44.636-50.339,45.287-85.712c0.012-0.674,0.024-1.361,0.024-2.035
	C363.598,90.598,359.659,74.52,352.62,60.217z"/>
<path style="fill:#F95428;" d="M352.62,60.217L352.62,60.217l99.684,15.439l-46.387-52.634
	c-15.782-17.888-42.708-20.538-61.661-6.045l-14.989,11.476l-0.177,0.189l0,0l0,0C309.9,10.86,284.228,0,256,0
	c-17.9,0-34.77,4.365-49.617,12.103c-8.565,4.448-16.456,10.032-23.472,16.539c-9.665,8.932-17.687,19.627-23.543,31.576
	c-7.039,14.303-10.979,30.381-10.979,47.393c0,3.336,0.154,6.625,0.461,9.878c30.949-3.525,57.91-20.183,75.171-44.27
	c19.225,29.233,52.326,48.529,89.935,48.529c17.9,0,34.77-4.365,49.617-12.103c0.012-0.674,0.024-1.361,0.024-2.035
	C363.598,90.598,359.659,74.52,352.62,60.217L352.62,60.217z"/>
<path style="fill:#D33924;" d="M256,0c-17.9,0-34.77,4.365-49.617,12.103c-8.565,4.448-16.456,10.032-23.472,16.539l0,0
	l-0.177-0.189l-15.001-11.476c-18.952-14.492-45.879-11.842-61.649,6.045L59.697,75.656l99.672-15.439l0,0
	c-7.039,14.303-10.979,30.381-10.979,47.393c0,3.336,0.154,6.625,0.461,9.878c0.237-0.024,0.485-0.059,0.722-0.095
	c30.653-3.691,57.319-20.277,74.449-44.175c0.497,0.757,1.017,1.514,1.538,2.26c1.633-5.276,3.679-10.375,6.093-15.261
	c5.856-11.949,13.877-22.644,23.543-31.576c7.015-6.507,14.906-12.091,23.472-16.539c4.318-2.248,8.826-4.212,13.463-5.868
	C280.832,2.212,268.682,0,256,0z"/>
<path style="fill:#2197D8;" d="M217.314,208.026c3.194-21.113-9.425-33.731-25.755-14.243l-0.935,3.738l-21.697,86.528
	l-29.245,116.625c8.636,3.1,17.355,5.844,26.157,8.222c8.531,2.316,17.133,4.278,25.779,5.925L217.314,208.026z"/>
<path style="fill:#E09B2D;" d="M292.13,208.95c-11.286,4.034-23.448,6.258-36.13,6.258c-13.428,0-26.276-2.461-38.118-6.956
	c-9.488-3.585-18.337-8.482-26.323-14.469c-23.732-17.769-39.881-45.11-42.708-76.295c0-0.035-0.012-0.059-0.012-0.095
	c30.653-3.691,57.319-20.277,74.449-44.175c0.663,1.006,1.349,2.011,2.047,2.993c-3.04,9.938-4.661,20.479-4.661,31.398
	c0,3.336,0.154,6.625,0.461,9.878c2.827,31.185,18.976,58.525,42.708,76.295c7.986,5.986,16.835,10.884,26.323,14.469
	C290.817,208.501,291.48,208.714,292.13,208.95z"/>
<g>
	<circle style="fill:#333333;" cx="308.054" cy="152.613" r="8.873"/>
	<circle style="fill:#333333;" cx="203.946" cy="152.613" r="8.873"/>
</g>
<g>
</g>
<g>
</g>
<g>
</g>
<g>
</g>
<g>
</g>
<g>
</g>
<g>
</g>
<g>
</g>
<g>
</g>
<g>
</g>
<g>
</g>
<g>
</g>
<g>
</g>
<g>
</g>
<g>
</g>
</svg>
